<svg width="237" height="40" viewBox="0 0 237 40" fill="none" xmlns="http://www.w3.org/2000/svg">
<g opacity="0.969">
<path fill-rule="evenodd" clip-rule="evenodd" d="M30.887 0.83408C32.8084 0.623264 34.1301 1.38494 34.8522 3.11909C35.2246 4.53338 34.8767 5.74389 33.8087 6.75063C32.0301 7.91149 30.4023 7.73473 28.9252 6.22018C27.8729 4.51797 28.0538 2.95383 29.4678 1.52774C29.9029 1.20627 30.376 0.975041 30.887 0.83408Z" fill="#F0F5FF"/>
<path fill-rule="evenodd" clip-rule="evenodd" d="M18.8661 6.54661C23.4906 11.3279 28.6663 15.4218 34.393 18.8285C35.71 19.5538 37.0457 20.2338 38.4 20.8687C38.0949 21.859 37.7332 22.8248 37.3148 23.7658C36.0533 23.1901 34.829 22.5508 33.6417 21.848C29.5064 19.2817 25.6108 16.3983 21.9548 13.1976C21.0896 12.3792 20.2548 11.5358 19.4504 10.6678C19.1885 10.4457 18.9102 10.4186 18.6157 10.5862C16.2309 13.0815 13.6431 15.3392 10.8522 17.3596C8.30901 19.2152 5.66555 20.929 2.92174 22.5009C2.26407 22.836 1.59625 23.1488 0.918261 23.4394C0.544328 22.3153 0.238239 21.1728 0 20.0118C1.50146 19.55 2.92059 18.9107 4.25739 18.0941C9.34113 15.1942 13.9464 11.6716 18.073 7.5259C18.3553 7.20967 18.6196 6.88324 18.8661 6.54661Z" fill="#F0F5FF"/>
<path fill-rule="evenodd" clip-rule="evenodd" d="M5.92696 7.68911C7.42957 7.68911 8.93217 7.68911 10.4348 7.68911C10.4348 8.06997 10.4348 8.45076 10.4348 8.83162C8.93217 8.83162 7.42957 8.83162 5.92696 8.83162C5.92696 8.45076 5.92696 8.06997 5.92696 7.68911Z" fill="#F0F5FF"/>
<path fill-rule="evenodd" clip-rule="evenodd" d="M6.76174 9.56608C7.68 9.56608 8.59826 9.56608 9.51652 9.56608C9.53046 11.0081 9.51652 12.4498 9.47478 13.8913C8.60552 14.4997 7.729 15.0983 6.84522 15.6866C6.76174 13.6472 6.73394 11.607 6.76174 9.56608Z" fill="#F0F5FF"/>
<path fill-rule="evenodd" clip-rule="evenodd" d="M18.9496 11.2798C20.0353 12.3141 21.1205 13.3477 22.2052 14.3809C20.0353 14.4762 17.8648 14.4897 15.6939 14.4217C16.8214 13.4148 17.9066 12.3674 18.9496 11.2798Z" fill="#F0F5FF"/>
<path fill-rule="evenodd" clip-rule="evenodd" d="M14.6922 15.197C17.5306 15.1834 20.3689 15.197 23.207 15.2378C24.9018 16.61 26.6271 17.9429 28.3826 19.2366C25.8226 19.291 23.2626 19.291 20.7026 19.2366C19.4513 18.4208 18.1991 18.4208 16.9461 19.2366C14.4417 19.291 11.9374 19.291 9.43304 19.2366C11.2496 17.9634 13.0027 16.6169 14.6922 15.197Z" fill="#F0F5FF"/>
<path fill-rule="evenodd" clip-rule="evenodd" d="M18.6991 19.359C20.664 19.5554 21.5684 20.6163 21.4122 22.5417C20.9488 24.1224 19.8775 24.7888 18.1983 24.5411C16.6059 23.9716 15.9798 22.8699 16.32 21.236C16.7355 20.1347 17.5285 19.5091 18.6991 19.359Z" fill="#F0F5FF"/>
<path fill-rule="evenodd" clip-rule="evenodd" d="M8.26435 20.0118C10.8522 20.0118 13.44 20.0118 16.0278 20.0118C15.107 21.6483 15.3017 23.1444 16.6122 24.5003C14.4979 24.5682 12.3832 24.609 10.2678 24.6227C9.94785 24.8267 9.68348 25.0851 9.47478 25.3979C9.36351 25.2347 9.25215 25.0715 9.14087 24.9083C9.03076 24.7461 8.87775 24.6509 8.68174 24.6227C7.59686 24.5819 6.51164 24.5682 5.42609 24.5819C5.47004 23.6279 5.5396 22.6758 5.63478 21.7256C6.53827 21.1828 7.41479 20.6116 8.26435 20.0118Z" fill="#F0F5FF"/>
<path fill-rule="evenodd" clip-rule="evenodd" d="M21.6209 20.0118C24.2645 19.9982 26.908 20.0118 29.5513 20.0527C30.4 20.6103 31.2487 21.168 32.0974 21.7256C32.2341 22.6705 32.3315 23.6226 32.3896 24.5819C28.6051 24.5955 24.8208 24.5819 21.0365 24.5411C22.361 23.1759 22.5558 21.6662 21.6209 20.0118Z" fill="#F0F5FF"/>
<path fill-rule="evenodd" clip-rule="evenodd" d="M5.42609 25.3163C6.48493 25.2892 7.54234 25.3164 8.59826 25.3979C8.74209 25.6926 8.93685 25.9511 9.18261 26.1732C9.37736 26.2276 9.5722 26.2276 9.76696 26.1732C10.0096 25.9161 10.2323 25.6441 10.4348 25.3571C17.7808 25.3163 25.1269 25.3027 32.473 25.3163C32.5565 26.8397 32.64 28.363 32.7235 29.8864C31.8882 29.8728 31.0534 29.8864 30.2191 29.9272C30.0734 29.9656 29.9342 30.02 29.8017 30.0904C29.6778 30.2925 29.5247 30.4694 29.3426 30.6208C29.1673 30.4495 28.9864 30.2726 28.8 30.0904C28.6675 30.02 28.5284 29.9656 28.3826 29.9272C27.242 29.8864 26.1012 29.8727 24.96 29.8864C24.9948 29.118 24.9531 28.3564 24.8348 27.6013C24.673 27.3887 24.4643 27.2391 24.2087 27.1525C20.8418 27.0981 17.4748 27.0981 14.1078 27.1525C13.76 27.2749 13.5235 27.5061 13.3983 27.8462C13.3565 28.5257 13.3427 29.2058 13.3565 29.8864C10.6574 29.8864 7.95823 29.8864 5.25913 29.8864C5.30196 28.3625 5.35761 26.8391 5.42609 25.3163ZM21.12 28.7439C21.4724 28.7245 21.8203 28.7517 22.1635 28.8255C22.417 29.0142 22.4309 29.2182 22.2052 29.4375C21.7878 29.492 21.3704 29.492 20.953 29.4375C20.7437 29.1513 20.7994 28.92 21.12 28.7439Z" fill="#F0F5FF"/>
<path fill-rule="evenodd" clip-rule="evenodd" d="M14.1913 27.8462C17.5226 27.8192 20.8478 27.8464 24.167 27.9278C24.2087 31.6816 24.2226 35.4356 24.2087 39.1896C20.8418 39.1896 17.4748 39.1896 14.1078 39.1896C14.0804 35.4026 14.1082 31.6214 14.1913 27.8462ZM15.4435 28.7439C16.7516 28.7302 18.0594 28.7439 19.367 28.7847C19.7255 28.9352 19.7812 29.1529 19.5339 29.4375C18.1985 29.4783 16.8629 29.492 15.527 29.4783C15.5409 31.5459 15.527 33.6133 15.4852 35.6805C15.3034 35.9714 15.0808 35.9987 14.8174 35.7621C14.7617 33.5859 14.7617 31.4097 14.8174 29.2335C14.9599 28.9813 15.1686 28.8181 15.4435 28.7439ZM21.12 28.7439C20.7994 28.92 20.7437 29.1513 20.953 29.4375C21.3704 29.492 21.7878 29.492 22.2052 29.4375C22.4309 29.2182 22.417 29.0142 22.1635 28.8255C21.8203 28.7517 21.4724 28.7245 21.12 28.7439ZM20.7026 34.0483C20.9899 34.0321 21.2681 34.0729 21.5374 34.1708C21.7209 34.3815 21.8739 34.6127 21.9965 34.8644C22.2087 34.1052 22.6957 33.8739 23.4574 34.1708C23.68 34.3611 23.68 34.5516 23.4574 34.742C23.2386 34.8186 23.016 34.8866 22.7896 34.946C22.2187 36.3529 21.6621 36.3392 21.12 34.9052C20.8691 34.8781 20.6325 34.8101 20.4104 34.7012C20.2554 34.3784 20.3528 34.1607 20.7026 34.0483Z" fill="#F0F5FF"/>
<path fill-rule="evenodd" clip-rule="evenodd" d="M5.17565 30.6208C7.90264 30.6208 10.6295 30.6208 13.3565 30.6208C13.3565 32.1442 13.3565 33.6675 13.3565 35.1908C10.5739 35.1908 7.79128 35.1908 5.0087 35.1908C5.1028 33.6694 5.15846 32.1461 5.17565 30.6208Z" fill="#F0F5FF"/>
<path fill-rule="evenodd" clip-rule="evenodd" d="M24.96 30.6208C26.1012 30.6072 27.242 30.6208 28.3826 30.6616C29.0188 31.5854 29.6587 31.5854 30.3026 30.6616C31.1369 30.6208 31.9717 30.6073 32.807 30.6208C32.9341 32.1427 33.0454 33.6661 33.1409 35.1908C30.4139 35.1908 27.687 35.1908 24.96 35.1908C24.96 33.6675 24.96 32.1442 24.96 30.6208Z" fill="#F0F5FF"/>
<path fill-rule="evenodd" clip-rule="evenodd" d="M5.0087 35.9253C7.79128 35.9253 10.5739 35.9253 13.3565 35.9253C13.3565 37.0134 13.3565 38.1015 13.3565 39.1896C10.5183 39.1896 7.68 39.1896 4.84174 39.1896C4.91019 38.1029 4.96584 37.0149 5.0087 35.9253Z" fill="#F0F5FF"/>
<path fill-rule="evenodd" clip-rule="evenodd" d="M24.96 35.9253C27.7148 35.9253 30.4696 35.9253 33.2243 35.9253C33.2724 36.9907 33.3558 38.0516 33.4748 39.108C30.6371 39.1896 27.7988 39.2168 24.96 39.1896C24.96 38.1015 24.96 37.0134 24.96 35.9253Z" fill="#F0F5FF"/>
</g>
<path d="M50.6799 28C50.5199 28 50.3759 27.944 50.2479 27.832C50.1359 27.72 50.0799 27.576 50.0799 27.4V11.8C50.0799 11.624 50.1359 11.48 50.2479 11.368C50.3759 11.256 50.5199 11.2 50.6799 11.2H53.2719C53.5279 11.2 53.7199 11.272 53.8479 11.416C53.9919 11.544 54.0799 11.648 54.1119 11.728L58.3359 19.312L62.5599 11.728C62.6079 11.648 62.6879 11.544 62.7999 11.416C62.9279 11.272 63.1279 11.2 63.3999 11.2H65.9679C66.1439 11.2 66.2879 11.256 66.3999 11.368C66.5279 11.48 66.5919 11.624 66.5919 11.8V27.4C66.5919 27.576 66.5279 27.72 66.3999 27.832C66.2879 27.944 66.1439 28 65.9679 28H63.1119C62.9359 28 62.7839 27.944 62.6559 27.832C62.5439 27.72 62.4879 27.576 62.4879 27.4V18.4L59.7759 23.416C59.7119 23.56 59.6159 23.688 59.4879 23.8C59.3599 23.912 59.1839 23.968 58.9599 23.968H57.7119C57.4879 23.968 57.3119 23.912 57.1839 23.8C57.0559 23.688 56.9519 23.56 56.8719 23.416L54.1599 18.4V27.4C54.1599 27.576 54.1039 27.72 53.9919 27.832C53.8799 27.944 53.7359 28 53.5599 28H50.6799ZM72.4515 28.24C71.5875 28.24 70.8115 28.08 70.1235 27.76C69.4515 27.424 68.9155 26.976 68.5155 26.416C68.1155 25.856 67.9155 25.224 67.9155 24.52C67.9155 23.384 68.3795 22.488 69.3075 21.832C70.2355 21.16 71.4675 20.704 73.0035 20.464L76.0035 20.008V19.672C76.0035 19.096 75.8835 18.656 75.6435 18.352C75.4035 18.048 74.9635 17.896 74.3235 17.896C73.8755 17.896 73.5075 17.984 73.2195 18.16C72.9475 18.336 72.7315 18.576 72.5715 18.88C72.4275 19.088 72.2275 19.192 71.9715 19.192H69.2835C69.1075 19.192 68.9715 19.144 68.8755 19.048C68.7795 18.936 68.7395 18.808 68.7555 18.664C68.7555 18.376 68.8595 18.048 69.0675 17.68C69.2915 17.296 69.6275 16.92 70.0755 16.552C70.5235 16.184 71.0995 15.88 71.8035 15.64C72.5075 15.4 73.3555 15.28 74.3475 15.28C75.3875 15.28 76.2755 15.4 77.0115 15.64C77.7475 15.88 78.3395 16.216 78.7875 16.648C79.2515 17.08 79.5955 17.592 79.8195 18.184C80.0435 18.76 80.1555 19.4 80.1555 20.104V27.4C80.1555 27.576 80.0915 27.72 79.9635 27.832C79.8515 27.944 79.7155 28 79.5555 28H76.7715C76.5955 28 76.4515 27.944 76.3395 27.832C76.2275 27.72 76.1715 27.576 76.1715 27.4V26.56C75.9635 26.864 75.6835 27.144 75.3315 27.4C74.9795 27.656 74.5635 27.856 74.0835 28C73.6195 28.16 73.0755 28.24 72.4515 28.24ZM73.5795 25.504C74.0435 25.504 74.4595 25.408 74.8275 25.216C75.2115 25.008 75.5075 24.696 75.7155 24.28C75.9395 23.848 76.0515 23.312 76.0515 22.672V22.336L74.0115 22.696C73.2595 22.824 72.7075 23.024 72.3555 23.296C72.0195 23.552 71.8515 23.856 71.8515 24.208C71.8515 24.48 71.9315 24.712 72.0915 24.904C72.2515 25.096 72.4595 25.248 72.7155 25.36C72.9715 25.456 73.2595 25.504 73.5795 25.504ZM82.5037 28C82.3277 28 82.1837 27.944 82.0717 27.832C81.9597 27.72 81.9037 27.576 81.9037 27.4V16.12C81.9037 15.944 81.9597 15.8 82.0717 15.688C82.1837 15.576 82.3277 15.52 82.5037 15.52H90.5197C90.6797 15.52 90.8157 15.576 90.9277 15.688C91.0557 15.8 91.1197 15.944 91.1197 16.12V18.064C91.1197 18.24 91.0557 18.384 90.9277 18.496C90.8157 18.608 90.6797 18.664 90.5197 18.664H85.9357V27.4C85.9357 27.576 85.8717 27.72 85.7437 27.832C85.6317 27.944 85.4957 28 85.3357 28H82.5037ZM92.5353 28C92.3753 28 92.2393 27.944 92.1273 27.832C92.0153 27.72 91.9593 27.584 91.9593 27.424V16.12C91.9593 15.944 92.0153 15.8 92.1273 15.688C92.2393 15.576 92.3833 15.52 92.5593 15.52H95.3913C95.5513 15.52 95.6873 15.576 95.7993 15.688C95.9273 15.8 95.9913 15.944 95.9913 16.12V24.88L94.9113 24.352L100.839 15.904C100.919 15.792 101.015 15.704 101.127 15.64C101.239 15.56 101.367 15.52 101.511 15.52H104.079C104.239 15.52 104.375 15.576 104.487 15.688C104.599 15.8 104.655 15.936 104.655 16.096V27.4C104.655 27.576 104.599 27.72 104.487 27.832C104.375 27.944 104.231 28 104.055 28H101.223C101.047 28 100.903 27.944 100.791 27.832C100.679 27.72 100.623 27.576 100.623 27.4V18.904L101.727 19.12L95.7513 27.616C95.6873 27.728 95.5993 27.824 95.4873 27.904C95.3753 27.968 95.2393 28 95.0793 28H92.5353ZM114.224 28C114.048 28 113.904 27.944 113.792 27.832C113.68 27.72 113.624 27.576 113.624 27.4V23.752C113.256 24.04 112.792 24.264 112.232 24.424C111.672 24.568 111.04 24.64 110.336 24.64C108.848 24.64 107.696 24.256 106.88 23.488C106.08 22.72 105.68 21.488 105.68 19.792V16.12C105.68 15.944 105.736 15.8 105.848 15.688C105.96 15.576 106.104 15.52 106.28 15.52H109.208C109.384 15.52 109.528 15.576 109.64 15.688C109.752 15.8 109.808 15.944 109.808 16.12V19.6C109.808 20.16 109.944 20.56 110.216 20.8C110.488 21.024 110.944 21.136 111.584 21.136C112.176 21.136 112.664 21.048 113.048 20.872C113.432 20.68 113.624 20.392 113.624 20.008V16.12C113.624 15.944 113.68 15.8 113.792 15.688C113.904 15.576 114.048 15.52 114.224 15.52H117.296C117.472 15.52 117.616 15.576 117.728 15.688C117.84 15.8 117.896 15.944 117.896 16.12V27.4C117.896 27.576 117.84 27.72 117.728 27.832C117.616 27.944 117.472 28 117.296 28H114.224ZM125.635 28.24C123.747 28.24 122.243 27.728 121.123 26.704C120.003 25.68 119.419 24.16 119.371 22.144C119.371 22.032 119.371 21.888 119.371 21.712C119.371 21.536 119.371 21.4 119.371 21.304C119.419 20.04 119.699 18.96 120.211 18.064C120.739 17.152 121.459 16.464 122.371 16C123.299 15.52 124.379 15.28 125.611 15.28C127.019 15.28 128.179 15.56 129.091 16.12C130.019 16.68 130.715 17.44 131.179 18.4C131.643 19.36 131.875 20.456 131.875 21.688V22.264C131.875 22.44 131.811 22.584 131.683 22.696C131.571 22.808 131.435 22.864 131.275 22.864H123.595C123.595 22.88 123.595 22.904 123.595 22.936C123.595 22.968 123.595 23 123.595 23.032C123.611 23.496 123.691 23.92 123.835 24.304C123.979 24.688 124.203 24.992 124.507 25.216C124.811 25.44 125.179 25.552 125.611 25.552C125.931 25.552 126.195 25.504 126.403 25.408C126.627 25.296 126.811 25.176 126.955 25.048C127.099 24.904 127.211 24.784 127.291 24.688C127.435 24.528 127.547 24.432 127.627 24.4C127.723 24.352 127.867 24.328 128.059 24.328H131.035C131.195 24.328 131.323 24.376 131.419 24.472C131.531 24.552 131.579 24.672 131.563 24.832C131.547 25.104 131.411 25.432 131.155 25.816C130.899 26.2 130.523 26.584 130.027 26.968C129.547 27.336 128.939 27.64 128.203 27.88C127.467 28.12 126.611 28.24 125.635 28.24ZM123.595 20.488H127.651V20.44C127.651 19.928 127.571 19.48 127.411 19.096C127.267 18.712 127.035 18.416 126.715 18.208C126.411 18 126.043 17.896 125.611 17.896C125.179 17.896 124.811 18 124.507 18.208C124.219 18.416 123.995 18.712 123.835 19.096C123.675 19.48 123.595 19.928 123.595 20.44V20.488ZM138.901 28.24C137.717 28.24 136.669 28.024 135.757 27.592C134.845 27.16 134.117 26.536 133.573 25.72C133.045 24.888 132.757 23.896 132.709 22.744C132.693 22.488 132.685 22.168 132.685 21.784C132.685 21.384 132.693 21.056 132.709 20.8C132.757 19.632 133.045 18.64 133.573 17.824C134.101 16.992 134.821 16.36 135.733 15.928C136.661 15.496 137.717 15.28 138.901 15.28C140.005 15.28 140.949 15.44 141.733 15.76C142.517 16.064 143.157 16.448 143.653 16.912C144.149 17.376 144.517 17.856 144.757 18.352C145.013 18.832 145.149 19.256 145.165 19.624C145.181 19.784 145.125 19.928 144.997 20.056C144.869 20.168 144.725 20.224 144.565 20.224H141.517C141.341 20.224 141.205 20.184 141.109 20.104C141.013 20.024 140.925 19.904 140.845 19.744C140.653 19.248 140.405 18.896 140.101 18.688C139.813 18.48 139.437 18.376 138.973 18.376C138.333 18.376 137.837 18.584 137.485 19C137.149 19.416 136.965 20.056 136.933 20.92C136.917 21.56 136.917 22.128 136.933 22.624C136.965 23.504 137.149 24.144 137.485 24.544C137.837 24.944 138.333 25.144 138.973 25.144C139.469 25.144 139.861 25.04 140.149 24.832C140.437 24.624 140.669 24.272 140.845 23.776C140.925 23.616 141.013 23.496 141.109 23.416C141.205 23.336 141.341 23.296 141.517 23.296H144.565C144.725 23.296 144.869 23.36 144.997 23.488C145.125 23.6 145.181 23.736 145.165 23.896C145.149 24.168 145.069 24.488 144.925 24.856C144.781 25.208 144.557 25.584 144.253 25.984C143.949 26.384 143.549 26.76 143.053 27.112C142.573 27.448 141.989 27.72 141.301 27.928C140.613 28.136 139.813 28.24 138.901 28.24ZM146.962 28C146.786 28 146.642 27.944 146.53 27.832C146.418 27.72 146.362 27.576 146.362 27.4V16.12C146.362 15.944 146.418 15.8 146.53 15.688C146.642 15.576 146.786 15.52 146.962 15.52H149.722C149.898 15.52 150.042 15.576 150.154 15.688C150.266 15.8 150.322 15.944 150.322 16.12V20.104H151.618L154.234 15.904C154.282 15.824 154.362 15.744 154.474 15.664C154.586 15.568 154.73 15.52 154.906 15.52H157.978C158.122 15.52 158.242 15.568 158.338 15.664C158.45 15.744 158.506 15.856 158.506 16C158.506 16.048 158.49 16.104 158.458 16.168C158.442 16.232 158.418 16.288 158.386 16.336L155.098 21.568L158.938 27.208C159.002 27.304 159.034 27.408 159.034 27.52C159.034 27.664 158.986 27.784 158.89 27.88C158.794 27.96 158.666 28 158.506 28H155.122C154.946 28 154.802 27.968 154.69 27.904C154.594 27.824 154.506 27.728 154.426 27.616L151.57 23.248H150.322V27.4C150.322 27.576 150.266 27.72 150.154 27.832C150.042 27.944 149.898 28 149.722 28H146.962ZM160.532 28C160.372 28 160.236 27.944 160.124 27.832C160.012 27.72 159.956 27.584 159.956 27.424V16.12C159.956 15.944 160.012 15.8 160.124 15.688C160.236 15.576 160.38 15.52 160.556 15.52H163.388C163.548 15.52 163.684 15.576 163.796 15.688C163.924 15.8 163.988 15.944 163.988 16.12V24.88L162.908 24.352L168.836 15.904C168.916 15.792 169.012 15.704 169.124 15.64C169.236 15.56 169.364 15.52 169.508 15.52H172.076C172.236 15.52 172.372 15.576 172.484 15.688C172.596 15.8 172.652 15.936 172.652 16.096V27.4C172.652 27.576 172.596 27.72 172.484 27.832C172.372 27.944 172.228 28 172.052 28H169.22C169.044 28 168.9 27.944 168.788 27.832C168.676 27.72 168.62 27.576 168.62 27.4V18.904L169.724 19.12L163.748 27.616C163.684 27.728 163.596 27.824 163.484 27.904C163.372 27.968 163.236 28 163.076 28H160.532ZM174.877 28C174.717 28 174.581 27.944 174.469 27.832C174.357 27.72 174.301 27.584 174.301 27.424V16.12C174.301 15.944 174.357 15.8 174.469 15.688C174.581 15.576 174.725 15.52 174.901 15.52H177.733C177.893 15.52 178.029 15.576 178.141 15.688C178.269 15.8 178.333 15.944 178.333 16.12V24.88L177.253 24.352L183.181 15.904C183.261 15.792 183.357 15.704 183.469 15.64C183.581 15.56 183.709 15.52 183.853 15.52H186.421C186.581 15.52 186.717 15.576 186.829 15.688C186.941 15.8 186.997 15.936 186.997 16.096V27.4C186.997 27.576 186.941 27.72 186.829 27.832C186.717 27.944 186.573 28 186.397 28H183.565C183.389 28 183.245 27.944 183.133 27.832C183.021 27.72 182.965 27.576 182.965 27.4V18.904L184.069 19.12L178.093 27.616C178.029 27.728 177.941 27.824 177.829 27.904C177.717 27.968 177.581 28 177.421 28H174.877ZM180.829 13.888C179.837 13.888 179.029 13.736 178.405 13.432C177.781 13.128 177.325 12.712 177.037 12.184C176.765 11.656 176.629 11.08 176.629 10.456C176.629 10.328 176.661 10.224 176.725 10.144C176.805 10.048 176.925 10 177.085 10H179.005C179.149 10 179.261 10.048 179.341 10.144C179.421 10.224 179.461 10.328 179.461 10.456C179.461 10.792 179.549 11.088 179.725 11.344C179.917 11.6 180.285 11.728 180.829 11.728C181.389 11.728 181.757 11.6 181.933 11.344C182.125 11.088 182.221 10.792 182.221 10.456C182.221 10.328 182.261 10.224 182.341 10.144C182.421 10.048 182.533 10 182.677 10H184.597C184.741 10 184.853 10.048 184.933 10.144C185.013 10.224 185.053 10.328 185.053 10.456C185.053 11.08 184.909 11.656 184.621 12.184C184.349 12.712 183.901 13.128 183.277 13.432C182.653 13.736 181.837 13.888 180.829 13.888ZM188.526 31.36C188.366 31.36 188.222 31.304 188.094 31.192C187.982 31.08 187.926 30.936 187.926 30.76V24.76C187.926 24.6 187.982 24.464 188.094 24.352C188.222 24.224 188.366 24.16 188.526 24.16H188.958C189.358 24.16 189.686 23.976 189.942 23.608C190.198 23.24 190.406 22.728 190.566 22.072C190.726 21.4 190.838 20.608 190.902 19.696C190.966 18.768 190.998 17.76 190.998 16.672V11.8C190.998 11.624 191.054 11.48 191.166 11.368C191.294 11.256 191.438 11.2 191.598 11.2H202.878C203.054 11.2 203.198 11.256 203.31 11.368C203.422 11.48 203.478 11.624 203.478 11.8V24.16H204.606C204.782 24.16 204.926 24.224 205.038 24.352C205.166 24.464 205.23 24.6 205.23 24.76V30.76C205.23 30.92 205.166 31.056 205.038 31.168C204.926 31.296 204.782 31.36 204.606 31.36H201.51C201.334 31.36 201.19 31.296 201.078 31.168C200.966 31.056 200.91 30.92 200.91 30.76V28H192.246V30.76C192.246 30.92 192.19 31.056 192.078 31.168C191.966 31.296 191.822 31.36 191.646 31.36H188.526ZM194.07 24.16H199.182V15.04H195.174V17.224C195.174 18.92 195.078 20.336 194.886 21.472C194.694 22.592 194.422 23.488 194.07 24.16ZM212.363 28.24C211.019 28.24 209.883 28.024 208.955 27.592C208.043 27.16 207.339 26.544 206.843 25.744C206.363 24.928 206.091 23.96 206.027 22.84C206.011 22.52 206.003 22.16 206.003 21.76C206.003 21.344 206.011 20.984 206.027 20.68C206.091 19.544 206.379 18.576 206.891 17.776C207.403 16.976 208.115 16.36 209.027 15.928C209.955 15.496 211.067 15.28 212.363 15.28C213.675 15.28 214.787 15.496 215.699 15.928C216.627 16.36 217.347 16.976 217.859 17.776C218.371 18.576 218.659 19.544 218.723 20.68C218.739 20.984 218.747 21.344 218.747 21.76C218.747 22.16 218.739 22.52 218.723 22.84C218.659 23.96 218.379 24.928 217.883 25.744C217.403 26.544 216.699 27.16 215.771 27.592C214.859 28.024 213.723 28.24 212.363 28.24ZM212.363 25.312C213.083 25.312 213.603 25.096 213.923 24.664C214.259 24.232 214.451 23.584 214.499 22.72C214.515 22.48 214.523 22.16 214.523 21.76C214.523 21.36 214.515 21.04 214.499 20.8C214.451 19.952 214.259 19.312 213.923 18.88C213.603 18.432 213.083 18.208 212.363 18.208C211.659 18.208 211.139 18.432 210.803 18.88C210.467 19.312 210.283 19.952 210.251 20.8C210.235 21.04 210.227 21.36 210.227 21.76C210.227 22.16 210.235 22.48 210.251 22.72C210.283 23.584 210.467 24.232 210.803 24.664C211.139 25.096 211.659 25.312 212.363 25.312ZM220.627 28C220.499 28 220.387 27.952 220.291 27.856C220.195 27.76 220.147 27.64 220.147 27.496V16C220.147 15.872 220.195 15.76 220.291 15.664C220.387 15.568 220.499 15.52 220.627 15.52H223.387C223.675 15.52 223.907 15.664 224.083 15.952L227.347 21.784L230.635 15.952C230.811 15.664 231.043 15.52 231.331 15.52H234.091C234.235 15.52 234.355 15.568 234.451 15.664C234.547 15.76 234.595 15.872 234.595 16V27.496C234.595 27.64 234.547 27.76 234.451 27.856C234.355 27.952 234.235 28 234.091 28H231.115C230.971 28 230.851 27.952 230.755 27.856C230.659 27.76 230.611 27.64 230.611 27.496V19.672L231.787 19.936L228.547 25.6C228.467 25.744 228.371 25.872 228.259 25.984C228.163 26.08 228.019 26.128 227.827 26.128H226.867C226.707 26.128 226.571 26.08 226.459 25.984C226.347 25.888 226.243 25.76 226.147 25.6L223.003 20.08L224.107 19.84V27.496C224.107 27.64 224.059 27.76 223.963 27.856C223.867 27.952 223.747 28 223.603 28H220.627Z" fill="#F0F5FF"/>
</svg>
