<?xml version="1.0" encoding="utf-8"?><svg viewBox="0 0 128 128" xmlns="http://www.w3.org/2000/svg" xmlns:xlink="http://www.w3.org/1999/xlink"><style>:root>svg{display:none}:root>svg:target{display:block}</style><svg viewBox="0 0 128 128" id="favicon" xmlns="http://www.w3.org/2000/svg"><rect width="128" height="128" rx="15"/><g opacity=".969" fill-rule="evenodd" clip-rule="evenodd"><path d="M86.035 18.065c3.643-.4 6.149 1.044 7.518 4.332.706 2.681.047 4.976-1.978 6.885-3.372 2.2-6.458 1.866-9.259-1.006-1.995-3.227-1.652-6.192 1.03-8.896a8.134 8.134 0 012.69-1.315zM63.246 28.895a141.203 141.203 0 0029.437 23.284 131.092 131.092 0 007.596 3.868 49.056 49.056 0 01-2.057 5.493 73.855 73.855 0 01-6.964-3.636 168.33 168.33 0 01-22.156-16.4 102.604 102.604 0 01-4.748-4.796c-.497-.42-1.024-.472-1.583-.155a107.56 107.56 0 01-14.718 12.842 162.713 162.713 0 01-15.035 9.747 63.233 63.233 0 01-3.798 1.779 56.642 56.642 0 01-1.741-6.498 35.36 35.36 0 008.071-3.636 122.268 122.268 0 0026.193-20.035c.535-.6 1.036-1.219 1.503-1.857zM38.715 31.061h8.547v2.166h-8.547v-2.166z"/><path d="M40.298 34.62h5.223c.026 2.733 0 5.466-.08 8.2a259.04 259.04 0 01-4.985 3.403 212.767 212.767 0 01-.158-11.604zM63.404 37.868l6.172 5.88c-4.113.18-8.228.206-12.344.077a110.881 110.881 0 006.172-5.957zM55.333 45.295a841.7 841.7 0 0116.142.077 272.442 272.442 0 009.813 7.581c-4.854.103-9.707.103-14.56 0-2.373-1.547-4.746-1.547-7.122 0a328 328 0 01-14.244 0 143.484 143.484 0 009.97-7.658zM62.93 53.185c3.725.372 5.439 2.384 5.143 6.034-.879 2.997-2.91 4.26-6.093 3.79-3.019-1.08-4.206-3.168-3.561-6.266.788-2.087 2.291-3.273 4.51-3.558z"/><path d="M43.147 54.423h14.718c-1.746 3.102-1.377 5.939 1.108 8.51-4.008.128-8.018.205-12.028.231a5.053 5.053 0 00-1.503 1.47l-.633-.928a1.218 1.218 0 00-.87-.542 123.074 123.074 0 00-6.173-.077c.083-1.809.215-3.614.396-5.415a80.681 80.681 0 004.985-3.25zM68.469 54.423c5.011-.026 10.023 0 15.034.077l4.827 3.172a65.39 65.39 0 01.554 5.415c-7.174.026-14.349 0-21.523-.078 2.51-2.588 2.88-5.45 1.108-8.586z"/><path d="M37.766 64.48a58.58 58.58 0 016.014.154 4.808 4.808 0 001.108 1.47c.369.103.738.103 1.108 0 .46-.488.882-1.003 1.266-1.547 13.926-.078 27.853-.104 41.78-.078l.475 8.664a72.98 72.98 0 00-4.748.078c-.276.072-.54.176-.79.309a4.06 4.06 0 01-.871 1.006l-1.029-1.006a3.692 3.692 0 00-.791-.31c-2.163-.077-4.325-.103-6.489-.077.066-1.456-.013-2.9-.237-4.332a2.443 2.443 0 00-1.187-.85 592.266 592.266 0 00-19.15 0c-.66.231-1.108.67-1.345 1.314a47.344 47.344 0 00-.08 3.868H37.45c.08-2.889.186-5.777.316-8.664zm29.753 6.497a7.43 7.43 0 011.978.155c.48.358.507.745.08 1.16a9.14 9.14 0 01-2.374 0c-.397-.542-.292-.98.316-1.315z"/><path d="M54.383 69.275c6.316-.05 12.62 0 18.913.155.079 7.117.105 14.234.079 21.35h-19.15c-.052-7.179 0-14.347.158-21.505zm2.374 1.702c2.48-.026 4.96 0 7.438.078.68.285.786.698.317 1.237a186.42 186.42 0 01-7.596.078c.026 3.92 0 7.839-.08 11.758-.344.552-.766.603-1.266.155a241.825 241.825 0 010-12.377 1.88 1.88 0 011.187-.929zm10.762 0c-.608.334-.713.773-.317 1.315a9.14 9.14 0 002.374 0c.428-.415.402-.802-.079-1.16a7.43 7.43 0 00-1.978-.155zm-.791 10.057a3.936 3.936 0 011.582.232c.348.4.638.838.87 1.315.403-1.44 1.326-1.878 2.77-1.315.422.36.422.722 0 1.083-.415.145-.837.274-1.266.386-1.082 2.668-2.137 2.642-3.165-.077a4.01 4.01 0 01-1.345-.387c-.294-.612-.11-1.024.554-1.237zM37.291 74.536h15.51V83.2H36.975c.178-2.885.284-5.773.316-8.664zM74.799 74.536c2.164-.026 4.326 0 6.489.077 1.206 1.751 2.419 1.751 3.64 0a72.978 72.978 0 014.748-.077c.24 2.885.451 5.773.633 8.664h-15.51v-8.664zM36.975 84.592H52.8v6.189H36.658c.13-2.06.235-4.123.317-6.189zM74.799 84.592h15.668c.09 2.02.25 4.031.475 6.034-5.38.155-10.761.206-16.143.155v-6.189z"/></g></svg></svg>