<svg width="128" height="128" viewBox="0 0 128 128" fill="none" xmlns="http://www.w3.org/2000/svg">
<rect width="128" height="128" rx="15" fill="black"/>
<g opacity="0.969">
<path fill-rule="evenodd" clip-rule="evenodd" d="M86.0355 18.065C89.6782 17.6653 92.184 19.1093 93.5529 22.397C94.2589 25.0782 93.5995 27.3732 91.5747 29.2818C88.2028 31.4826 85.1167 31.1475 82.3164 28.2761C80.3214 25.049 80.6643 22.0837 83.3451 19.3801C84.17 18.7706 85.0668 18.3322 86.0355 18.065Z" fill="white"/>
<path fill-rule="evenodd" clip-rule="evenodd" d="M63.246 28.895C72.0133 37.9595 81.8255 45.7209 92.6825 52.1795C95.1792 53.5544 97.7114 54.8437 100.279 56.0473C99.7006 57.9248 99.0148 59.7557 98.2216 61.5397C95.83 60.4482 93.5089 59.2363 91.2581 57.9039C83.4182 53.0386 76.0328 47.5721 69.1016 41.5042C67.4614 39.9526 65.8788 38.3537 64.3538 36.7081C63.8572 36.2871 63.3297 36.2356 62.7712 36.5533C58.2501 41.284 53.3441 45.5644 48.0529 49.3946C43.2315 52.9125 38.2199 56.1615 33.0181 59.1416C31.7713 59.7769 30.5052 60.3699 29.2199 60.9208C28.511 58.7898 27.9307 56.6238 27.479 54.4228C30.3255 53.5473 33.016 52.3353 35.5503 50.787C45.1882 45.2894 53.919 38.611 61.7425 30.7516C62.2776 30.152 62.7786 29.5332 63.246 28.895Z" fill="white"/>
<path fill-rule="evenodd" clip-rule="evenodd" d="M38.7155 31.061C41.5642 31.061 44.4129 31.061 47.2616 31.061C47.2616 31.783 47.2616 32.5049 47.2616 33.227C44.4129 33.227 41.5642 33.227 38.7155 33.227C38.7155 32.5049 38.7155 31.783 38.7155 31.061Z" fill="white"/>
<path fill-rule="evenodd" clip-rule="evenodd" d="M40.2981 34.6194C42.039 34.6194 43.7799 34.6194 45.5207 34.6194C45.5472 37.3532 45.5207 40.0864 45.4416 42.8193C43.7936 43.9728 42.1319 45.1075 40.4564 46.223C40.2981 42.3565 40.2454 38.4887 40.2981 34.6194Z" fill="white"/>
<path fill-rule="evenodd" clip-rule="evenodd" d="M63.4042 37.8684C65.4626 39.8291 67.52 41.7887 69.5764 43.7475C65.4626 43.9281 61.3478 43.9538 57.232 43.8249C59.3695 41.9159 61.4269 39.9303 63.4042 37.8684Z" fill="white"/>
<path fill-rule="evenodd" clip-rule="evenodd" d="M55.3329 45.2947C60.7141 45.2689 66.095 45.2947 71.4755 45.3721C74.6887 47.9736 77.9595 50.5005 81.2877 52.9531C76.4343 53.0562 71.5811 53.0562 66.7277 52.9531C64.3554 51.4065 61.9815 51.4065 59.606 52.9531C54.8581 53.0562 50.1103 53.0562 45.3625 52.9531C48.8064 50.5394 52.1299 47.9866 55.3329 45.2947Z" fill="white"/>
<path fill-rule="evenodd" clip-rule="evenodd" d="M62.9294 53.1851C66.6546 53.5575 68.369 55.5688 68.0729 59.219C67.1944 62.2158 65.1635 63.4792 61.9799 63.0095C58.961 61.9299 57.7741 59.8412 58.419 56.7435C59.2067 54.6557 60.7101 53.4696 62.9294 53.1851Z" fill="white"/>
<path fill-rule="evenodd" clip-rule="evenodd" d="M43.1468 54.4228C48.0529 54.4228 52.959 54.4228 57.8651 54.4228C56.1193 57.5253 56.4885 60.3617 58.9729 62.9321C54.9646 63.061 50.9554 63.1384 46.9451 63.1642C46.3385 63.551 45.8373 64.041 45.4416 64.634C45.2307 64.3246 45.0195 64.0151 44.8086 63.7057C44.5998 63.3983 44.3097 63.2177 43.9381 63.1642C41.8814 63.0868 39.824 63.061 37.766 63.0868C37.8493 61.2782 37.9812 59.4732 38.1616 57.6718C39.8745 56.6428 41.5362 55.5598 43.1468 54.4228Z" fill="white"/>
<path fill-rule="evenodd" clip-rule="evenodd" d="M68.4686 54.4228C73.4804 54.397 78.492 54.4228 83.5034 54.5002C85.1124 55.5574 86.7213 56.6147 88.3303 57.6718C88.5895 59.4631 88.7741 61.2682 88.8842 63.0868C81.7095 63.1127 74.535 63.0868 67.3607 63.0095C69.8717 60.4214 70.2411 57.5592 68.4686 54.4228Z" fill="white"/>
<path fill-rule="evenodd" clip-rule="evenodd" d="M37.766 64.4793C39.7733 64.4279 41.778 64.4794 43.7799 64.634C44.0526 65.1927 44.4218 65.6826 44.8877 66.1038C45.2569 66.207 45.6263 66.207 45.9955 66.1038C46.4556 65.6163 46.8777 65.1006 47.2616 64.5566C61.1884 64.4793 75.1154 64.4534 89.0425 64.4793C89.2007 67.3673 89.359 70.2552 89.5173 73.1433C87.9337 73.1176 86.3511 73.1433 84.7694 73.2206C84.4931 73.2935 84.2293 73.3967 83.9781 73.53C83.7431 73.9133 83.4529 74.2485 83.1077 74.5357C82.7754 74.2108 82.4324 73.8755 82.079 73.53C81.8278 73.3967 81.564 73.2935 81.2877 73.2206C79.1254 73.1433 76.9626 73.1174 74.799 73.1433C74.865 71.6866 74.7859 70.2427 74.5616 68.8113C74.2549 68.4081 73.8593 68.1245 73.3747 67.9603C66.9915 67.8571 60.6082 67.8571 54.2251 67.9603C53.5656 68.1924 53.1173 68.6307 52.8799 69.2754C52.8007 70.5637 52.7745 71.8529 52.8007 73.1433C47.6837 73.1433 42.5665 73.1433 37.4494 73.1433C37.5306 70.2543 37.6361 67.3662 37.766 64.4793ZM67.519 70.9773C68.1872 70.9406 68.8467 70.9921 69.4973 71.132C69.9779 71.4898 70.0043 71.8766 69.5764 72.2923C68.7851 72.3955 67.9938 72.3955 67.2025 72.2923C66.8056 71.7498 66.9111 71.3113 67.519 70.9773Z" fill="white"/>
<path fill-rule="evenodd" clip-rule="evenodd" d="M54.3834 69.2754C60.6989 69.2243 67.0029 69.2759 73.2955 69.4301C73.3747 76.5468 73.4011 83.6637 73.3747 90.7807C66.9915 90.7807 60.6082 90.7807 54.2251 90.7807C54.1732 83.6012 54.2259 76.4326 54.3834 69.2754ZM56.7573 70.9773C59.2372 70.9514 61.7167 70.9773 64.1955 71.0546C64.8753 71.3401 64.9808 71.7527 64.512 72.2923C61.9804 72.3697 59.4482 72.3955 56.9155 72.3697C56.942 76.2895 56.9155 80.2089 56.8364 84.128C56.4917 84.6795 56.0698 84.7312 55.5703 84.2827C55.4647 80.1569 55.4647 76.0313 55.5703 71.9055C55.8405 71.4275 56.2361 71.1181 56.7573 70.9773ZM67.519 70.9773C66.9111 71.3113 66.8056 71.7498 67.2025 72.2923C67.9938 72.3955 68.7851 72.3955 69.5764 72.2923C70.0043 71.8766 69.9779 71.4898 69.4973 71.132C68.8467 70.9921 68.1872 70.9406 67.519 70.9773ZM66.7277 81.0337C67.2723 81.0029 67.7998 81.0803 68.3103 81.2658C68.6582 81.6654 68.9483 82.1037 69.1807 82.5808C69.583 81.1415 70.5063 80.7031 71.9503 81.2658C72.3724 81.6267 72.3724 81.9878 71.9503 82.3488C71.5355 82.494 71.1134 82.6229 70.6842 82.7355C69.6019 85.4027 68.5468 85.3768 67.519 82.6582C67.0433 82.6068 66.5948 82.4778 66.1738 82.2714C65.8799 81.6594 66.0646 81.2467 66.7277 81.0337Z" fill="white"/>
<path fill-rule="evenodd" clip-rule="evenodd" d="M37.2912 74.5357C42.4611 74.5357 47.6308 74.5357 52.8007 74.5357C52.8007 77.4237 52.8007 80.3116 52.8007 83.1997C47.5254 83.1997 42.25 83.1997 36.9747 83.1997C37.1531 80.3152 37.2586 77.4273 37.2912 74.5357Z" fill="white"/>
<path fill-rule="evenodd" clip-rule="evenodd" d="M74.799 74.5357C76.9626 74.5099 79.1254 74.5357 81.2877 74.613C82.4938 76.3644 83.707 76.3644 84.9277 74.613C86.5094 74.5357 88.092 74.51 89.6755 74.5357C89.9166 77.421 90.1275 80.309 90.3086 83.1997C85.1387 83.1997 79.9689 83.1997 74.799 83.1997C74.799 80.3116 74.799 77.4237 74.799 74.5357Z" fill="white"/>
<path fill-rule="evenodd" clip-rule="evenodd" d="M36.9747 84.5921C42.25 84.5921 47.5254 84.5921 52.8007 84.5921C52.8007 86.6549 52.8007 88.7179 52.8007 90.7807C47.4199 90.7807 42.039 90.7807 36.6581 90.7807C36.7879 88.7205 36.8934 86.6577 36.9747 84.5921Z" fill="white"/>
<path fill-rule="evenodd" clip-rule="evenodd" d="M74.799 84.5921C80.0216 84.5921 85.2442 84.5921 90.4668 84.5921C90.5578 86.6119 90.7161 88.6232 90.9416 90.626C85.5619 90.7807 80.181 90.8322 74.799 90.7807C74.799 88.7179 74.799 86.6549 74.799 84.5921Z" fill="white"/>
</g>
</svg>
